<?xml version="1.0" encoding="UTF-8"?>
<svg version="1.1" xmlns="http://www.w3.org/2000/svg" width="512" height="512">
<path d="M0 0 C168.96 0 337.92 0 512 0 C512 168.96 512 337.92 512 512 C343.04 512 174.08 512 0 512 C0 343.04 0 174.08 0 0 Z " fill="#FEFEFE" transform="translate(0,0)"/>
<path d="M0 0 C8.22648043 7.79350778 12.22032114 19.18266486 12.55664062 30.35986328 C12.65331174 64.63782888 -16.28709793 93.49055284 -38.875 116.375 C-42.61537656 120.02026412 -46.47467465 123.53009474 -50.36523438 127.01367188 C-51.80444182 128.31137897 -53.22313216 129.63173337 -54.640625 130.953125 C-60.8334886 136.71140168 -67.31231553 141.96762974 -74.00390625 147.125 C-76.8161566 149.23589046 -76.8161566 149.23589046 -78.875 151.375 C-84.25100557 151.39465633 -87.8203261 147.5391276 -91.6875 144.25 C-92.42581055 143.6327002 -93.16412109 143.01540039 -93.92480469 142.37939453 C-100.67158351 136.67774996 -107.10653741 130.662735 -113.484375 124.5546875 C-116.16627341 121.99985786 -118.93348215 119.63166064 -121.875 117.375 C-118.51286089 97.5206838 -102.37507267 77.61937374 -88.67089844 63.49780273 C-86.37531197 61.11814713 -84.9363388 59.5590164 -83.875 56.375 C-91.420647 51.09064013 -91.420647 51.09064013 -100.0625 48.5 C-110.09822814 50.80328187 -118.02755041 61.04956286 -124.875 68.375 C-125.37 69.365 -125.37 69.365 -125.875 70.375 C-126.535 70.375 -127.195 70.375 -127.875 70.375 C-125.82942881 51.94134694 -114.49764867 34.35183748 -102.875 20.375 C-102.15957031 19.50617188 -101.44414062 18.63734375 -100.70703125 17.7421875 C-96.80623511 13.169881 -92.92545709 9.63675354 -87.875 6.375 C-82.31919134 14.636959 -82.31919134 14.636959 -81.875 19.375 C-81.215 19.375 -80.555 19.375 -79.875 19.375 C-79.79121094 18.68921875 -79.70742188 18.0034375 -79.62109375 17.296875 C-77.03930125 7.18598081 -68.25593065 -2.85733591 -59.875 -8.625 C-56.91998008 -10.08074631 -54.09690018 -10.97207705 -50.875 -11.625 C-49.823125 -11.851875 -48.77125 -12.07875 -47.6875 -12.3125 C-30.09800268 -13.75426208 -14.0964859 -11.33847779 0 0 Z " fill="#C5302C" transform="translate(336.875,194.625)"/>
<path d="M0 0 C22.90983575 -0.84344669 44.51633796 8.51091902 61.32617188 23.85058594 C75.63790975 37.25566398 75.63790975 37.25566398 79.55078125 45.23046875 C79.55078125 45.89046875 79.55078125 46.55046875 79.55078125 47.23046875 C72.57210066 44.90424189 67.61239826 40.41260045 62.55078125 35.23046875 C51.12390003 23.82724567 37.76715249 18.28864519 21.61328125 17.85546875 C9.23444393 18.21347739 -0.69101683 20.00090527 -9.44921875 29.23046875 C-14.6459748 35.35650583 -18.62527935 41.70615652 -21.44921875 49.23046875 C-22.10921875 49.23046875 -22.76921875 49.23046875 -23.44921875 49.23046875 C-25.42921875 45.27046875 -27.40921875 41.31046875 -29.44921875 37.23046875 C-35.35387526 41.37408735 -39.94882874 45.60976888 -44.44921875 51.23046875 C-45.13757813 52.05933594 -45.8259375 52.88820312 -46.53515625 53.7421875 C-57.57159791 67.62486938 -64.47747609 83.31441749 -69.44921875 100.23046875 C-68.78921875 100.23046875 -68.12921875 100.23046875 -67.44921875 100.23046875 C-67.18206055 99.63878906 -66.91490234 99.04710937 -66.63964844 98.4375 C-65.43121777 96.19709532 -64.19184261 94.714973 -62.40234375 92.91796875 C-61.80421875 92.31726563 -61.20609375 91.7165625 -60.58984375 91.09765625 C-59.9659375 90.48148437 -59.34203125 89.8653125 -58.69921875 89.23046875 C-58.09078125 88.61429687 -57.48234375 87.998125 -56.85546875 87.36328125 C-52.35386881 82.88091892 -48.26616973 78.82351106 -41.88671875 77.48046875 C-35.44336197 77.73167174 -29.61584641 82.70204011 -24.44921875 86.23046875 C-25.77666491 89.20755675 -27.18931174 91.14804319 -29.57421875 93.35546875 C-37.8133018 101.407686 -44.13084726 110.89324295 -50.34765625 120.52929688 C-51.2636353 121.94386736 -52.19790869 123.34657135 -53.13671875 124.74609375 C-58.42245957 132.9619735 -61.80952992 142.2021497 -65.44921875 151.23046875 C-74.90761954 152.04247772 -81.97067377 151.40932358 -89.44921875 145.23046875 C-93.94361614 140.62999995 -97.686601 135.42937389 -101.44921875 130.23046875 C-101.96693848 129.52857422 -102.4846582 128.82667969 -103.01806641 128.10351562 C-120.57543367 104.27293967 -120.57543367 104.27293967 -124.44921875 90.23046875 C-117.68664275 90.40266397 -112.56074057 91.63630744 -107.44921875 96.23046875 C-100.44921875 104.69434708 -100.44921875 104.69434708 -100.44921875 108.23046875 C-99.78921875 108.23046875 -99.12921875 108.23046875 -98.44921875 108.23046875 C-98.43503906 107.42867188 -98.42085937 106.626875 -98.40625 105.80078125 C-97.18539356 76.6982035 -82.91296935 47.30495023 -61.69921875 27.48046875 C-44.31406001 11.91116251 -23.35947546 1.56082565 0 0 Z " fill="#0EBFDE" transform="translate(278.44921875,164.76953125)"/>
<path d="M0 0 C-2.52438973 2.56357095 -5.09513174 5.01736481 -7.8125 7.375 C-8.43769531 7.91898438 -9.06289062 8.46296875 -9.70703125 9.0234375 C-11.00081598 10.13869316 -12.30281177 11.2450513 -13.63061523 12.31958008 C-17.87929459 15.81430271 -21.23952314 19.4692239 -24.4375 23.9375 C-24.90631592 24.5886377 -25.37513184 25.23977539 -25.8581543 25.91064453 C-38.81851898 44.30414623 -45.30973125 64.94521738 -49 87 C-60.86041078 72.7886392 -67.90634952 55.75256024 -66.28662109 37.14404297 C-64.47721297 23.60893039 -56.81932336 12.72674724 -46.6953125 3.98046875 C-32.86881019 -6.17900469 -15.42912174 -6.65919705 0 0 Z " fill="#C5322E" transform="translate(229,183)"/>
<path d="M0 0 C0.66 0.33 1.32 0.66 2 1 C1.3709375 1.49886719 0.741875 1.99773437 0.09375 2.51171875 C-8.3191655 9.56893853 -14.16291651 17.63987458 -18 28 C-18.66 28 -19.32 28 -20 28 C-21.98 23.71 -23.96 19.42 -26 15 C-18.22285859 8.4296564 -9.71542156 3.23847385 0 0 Z " fill="#F9FAFA" transform="translate(275,186)"/>
</svg>
